<svg xmlns="http://www.w3.org/2000/svg" width="880" height="518" viewBox="0 0 880 518">
  <g id="research-prob" transform="translate(-1517 -495)">
    <rect id="Rectangle_3" data-name="Rectangle 3" width="880" height="518" transform="translate(1517 495)" fill="none" opacity="0.9"/>
    <text id="Personalizing_the_Web_and_Mobile_application_UI_elements." data-name="Personalizing the Web and Mobile application UI elements." transform="translate(1681 608)" fill="#184d6e" font-size="25" font-family="LucidaFax, Lucida Fax"><tspan x="0" y="23">Personalizing the Web and Mobile application </tspan><tspan x="0" y="52">UI elements.</tspan></text>
    <text id="Achieving_personalization_through_the_usage_of_Deep_Q_Learning." data-name="Achieving personalization through the usage of Deep Q Learning." transform="translate(1681 702)" fill="#184d6e" font-size="25" font-family="LucidaFax, Lucida Fax"><tspan x="0" y="23">Achieving personalization through the usage of </tspan><tspan x="0" y="52">Deep Q Learning.</tspan></text>
    <g id="Group_68" data-name="Group 68" transform="translate(699 -54)">
      <text id="Provide_the_user_with_a_contextual_experience_by_delivering_content_and_functionality_depending_on_the_individual_user._justifed" data-name="Provide the user with a contextual experience by delivering content and functionality depending on the individual user._justifed" transform="translate(982 850)" fill="#184d6e" font-size="24" font-family="LucidaFax, Lucida Fax"><tspan x="0" y="23" xml:space="preserve">Provide  the  user  with a contextual experience </tspan><tspan x="0" y="52" xml:space="preserve">by    delivering    content    and   functionality   </tspan><tspan x="0" y="81" xml:space="preserve">depending       on       the       individual       user.       </tspan></text>
    </g>
    <g id="Group_20" data-name="Group 20" transform="translate(-117 -110)" opacity="0.74">
      <path id="Path_9" data-name="Path 9" d="M575.681,209.544l-22.916,13.049v25.963l22.916,13.318,22.962-13.318V222.593Z" transform="translate(1170.735 508.605)" fill="#f7590c"/>
      <text id="_1" data-name="1" transform="translate(1738 729)" fill="#fcfcfc" font-size="25" font-family="LucidaFax, Lucida Fax"><tspan x="0" y="23">1</tspan></text>
    </g>
    <g id="Group_21" data-name="Group 21" transform="translate(-117 -16)" opacity="0.74">
      <path id="Path_9-2" data-name="Path 9" d="M575.681,209.544l-22.916,13.049v25.963l22.916,13.318,22.962-13.318V222.593Z" transform="translate(1170.735 508.605)" fill="#f7590c"/>
      <text id="_2" data-name="2" transform="translate(1738 729)" fill="#fcfcfc" font-size="25" font-family="LucidaFax, Lucida Fax" opacity="0.8"><tspan x="0" y="23">2</tspan></text>
    </g>
    <g id="Group_22" data-name="Group 22" transform="translate(-117 75)" opacity="0.74">
      <path id="Path_9-3" data-name="Path 9" d="M575.681,209.544l-22.916,13.049v25.963l22.916,13.318,22.962-13.318V222.593Z" transform="translate(1170.735 508.605)" fill="#f7590c"/>
      <text id="_3" data-name="3" transform="translate(1738 729)" fill="#fcfcfc" font-size="25" font-family="LucidaFax, Lucida Fax" opacity="0.8"><tspan x="0" y="23">3</tspan></text>
    </g>
  </g>
</svg>
