<svg xmlns="http://www.w3.org/2000/svg" width="145.289" height="167.106" viewBox="0 0 145.289 167.106">
  <g id="Group_78" data-name="Group 78" transform="translate(-116.579 -2216)">
    <path id="Path_27" data-name="Path 27" d="M4084.287,357.83V275.457l73-42.512,71.946,42.512.347,82.372-72.641,42.221Z" transform="translate(-3967.708 1983.055)" fill="#184d6e" opacity="0.66"/>
    <path id="Path_28" data-name="Path 28" d="M4084.286,317.065V261.58l52.863-28.635,52.1,28.635.251,55.484L4136.9,345.5Z" transform="translate(-3947.471 2009.496)" fill="#fff"/>
    <path id="Path_29" data-name="Path 29" d="M4084.286,284.942v-34.3l31.73-17.7,31.274,17.7.15,34.3-31.576,17.579Z" transform="translate(-3926.432 2029.773)" fill="#184d6e" opacity="0.87"/>
    <path id="Path_30" data-name="Path 30" d="M3924.766,349.283v25.311l20.845,12.4,1.193-31.85-22.039-8.233Z" transform="translate(-3787.95 1977.83)" fill="#fff"/>
    <path id="Path_31" data-name="Path 31" d="M3923.7,365l13.8,25.621,20.276-12.258-15.223-26.971-19.944,12.254Z" transform="translate(-3715.75 1974.211)" fill="#fff"/>
  </g>
</svg>
